<?xml version="1.0" encoding="UTF-8" standalone="no"?>
<svg width="48px" height="48px" viewBox="0 0 48 48" version="1.1" xmlns="http://www.w3.org/2000/svg" xmlns:xlink="http://www.w3.org/1999/xlink" xmlns:sketch="http://www.bohemiancoding.com/sketch/ns">
    <title>Slice 1</title>
    <description>Created with Sketch (http://www.bohemiancoding.com/sketch)</description>
    <defs></defs>
    <g id="Page-1" stroke="none" stroke-width="1" fill="none" fill-rule="evenodd" sketch:type="MSPage">
        <path d="M24,0 C10.746,0 0,10.745 0,24 C0,37.255 10.746,48 24,48 C37.256,48 48,37.255 48,24 C48,10.745 37.256,0 24,0 L24,0 L24,0 L24,0 Z M24,46 C11.851,46 2.001,36.15 2.001,24 C2.001,11.85 11.851,2 24,2 C36.149,2 46,11.851 46,24 C46,36.15 36.149,46 24,46 L24,46 L24,46 L24,46 Z M39.71,11.664 C39.205,11.982 38.769,12.399 38.399,12.865 C37.587,13.889 37.071,15.099 36.659,16.348 C35.812,18.915 35.413,21.613 34.968,24.27 C34.585,26.555 33.352,37.33 28.806,34.67 C27.09,33.665 26.501,31.146 26.068,29.371 C25.437,26.784 25.088,24.139 24.618,21.519 C24.012,18.143 23.191,12.11 19.113,11.125 C13.809,9.844 12.295,17.018 11.591,20.699 C11.104,23.239 10.765,25.807 10.212,28.334 C9.764,30.385 9.203,33.632 7.143,34.717 C7.507,35.288 7.898,35.843 8.318,36.374 C8.824,36.066 9.262,35.658 9.631,35.197 C10.35,34.301 10.83,33.222 11.219,32.144 C12.188,29.452 12.609,26.585 13.079,23.774 C13.313,22.375 13.554,20.977 13.858,19.591 C14.003,18.935 14.161,18.282 14.347,17.637 C14.417,17.391 15.028,16.063 14.926,15.894 C15.644,14.154 17.368,12.04 19.405,13.428 C21.078,14.568 21.631,17.1 22.06,18.933 C22.665,21.519 23.012,24.159 23.489,26.77 C24.104,30.129 24.995,36.13 29.148,36.92 C34.251,37.891 35.694,31.217 36.408,27.587 C36.935,24.908 37.28,22.195 37.871,19.528 C38.317,17.518 38.876,14.404 40.872,13.307 C40.511,12.739 40.125,12.191 39.71,11.664 L39.71,11.664 Z" id="Fill-213" fill="#157EFB" sketch:type="MSShapeGroup"></path>
    </g>
</svg>