<?xml version="1.0" encoding="UTF-8" standalone="no"?>
<svg width="256px" height="256px" viewBox="0 0 256 256" version="1.1" xmlns="http://www.w3.org/2000/svg" xmlns:xlink="http://www.w3.org/1999/xlink" xmlns:sketch="http://www.bohemiancoding.com/sketch/ns">
    <title>Slice 1</title>
    <description>Created with Sketch (http://www.bohemiancoding.com/sketch)</description>
    <defs></defs>
    <g id="Page-1" stroke="none" stroke-width="1" fill="none" fill-rule="evenodd" sketch:type="MSPage">
        <path d="M128,0 C57.312,0 0,57.3066667 0,128 C0,198.693333 57.312,256 128,256 C198.698667,256 256,198.693333 256,128 C256,57.3066667 198.698667,0 128,0 L128,0 L128,0 L128,0 Z M128,245.333333 C63.2053333,245.333333 10.672,192.8 10.672,128 C10.672,63.2 63.2053333,10.6666667 128,10.6666667 C192.794667,10.6666667 245.333333,63.2053333 245.333333,128 C245.333333,192.8 192.794667,245.333333 128,245.333333 L128,245.333333 L128,245.333333 L128,245.333333 Z M211.786667,62.208 C209.093333,63.904 206.768,66.128 204.794667,68.6133333 C200.464,74.0746667 197.712,80.528 195.514667,87.1893333 C190.997333,100.88 188.869333,115.269333 186.496,129.44 C184.453333,141.626667 177.877333,199.093333 153.632,184.906667 C144.48,179.546667 141.338667,166.112 139.029333,156.645333 C135.664,142.848 133.802667,128.741333 131.296,114.768 C128.064,96.7626667 123.685333,64.5866667 101.936,59.3333333 C73.648,52.5013333 65.5733333,90.7626667 61.8186667,110.394667 C59.2213333,123.941333 57.4133333,137.637333 54.464,151.114667 C52.0746667,162.053333 49.0826667,179.370667 38.096,185.157333 C40.0373333,188.202667 42.1226667,191.162667 44.3626667,193.994667 C47.0613333,192.352 49.3973333,190.176 51.3653333,187.717333 C55.2,182.938667 57.76,177.184 59.8346667,171.434667 C65.0026667,157.077333 67.248,141.786667 69.7546667,126.794667 C71.0026667,119.333333 72.288,111.877333 73.9093333,104.485333 C74.6826667,100.986667 75.5253333,97.504 76.5173333,94.064 C76.8906667,92.752 80.1493333,85.6693333 79.6053333,84.768 C83.4346667,75.488 92.6293333,64.2133333 103.493333,71.616 C112.416,77.696 115.365333,91.2 117.653333,100.976 C120.88,114.768 122.730667,128.848 125.274667,142.773333 C128.554667,160.688 133.306667,192.693333 155.456,196.906667 C182.672,202.085333 190.368,166.490667 194.176,147.130667 C196.986667,132.842667 198.826667,118.373333 201.978667,104.149333 C204.357333,93.4293333 207.338667,76.8213333 217.984,70.9706667 C216.058667,67.9413333 214,65.0186667 211.786667,62.208 L211.786667,62.208 Z" id="Fill-213" fill="#157EFB" sketch:type="MSShapeGroup"></path>
    </g>
</svg>